<svg version="1.1" xmlns="http://www.w3.org/2000/svg" xmlns:xlink="http://www.w3.org/1999/xlink" width="1163" height="619"><defs/><g><g transform="translate(2,-18) scale(1,1)"><rect fill="#C0C0C0" stroke="none" x="179" y="35" width="136" height="81" opacity="0.2"/></g><g transform="translate(2,-18) scale(1,1)"><rect fill="#FFFFB9" stroke="none" x="172" y="28" width="136" height="81"/></g><g transform="translate(2,-18) scale(1,1)"><path fill="none" stroke="#800000" d="M 172 28 L 308 28 L 308 109 L 172 109 L 172 28 Z Z" stroke-miterlimit="10"/></g><g transform="translate(2,-18) scale(1,1)"><path fill="none" stroke="#800000" d="M 172 51 L 308 51" stroke-miterlimit="10"/></g><g transform="translate(2,-18) scale(1,1)"><path fill="none" stroke="#800000" d="M 172 98 L 308 98" stroke-miterlimit="10"/></g><g transform="translate(2,-18) scale(1,1)"><g><path fill="none" stroke="none"/><text fill="#000000" stroke="none" font-family="Arial" font-size="11px" font-style="normal" font-weight="bold" text-decoration="none" x="202.700439453125" y="45.5">OBS_Capture1</text></g></g><g transform="translate(2,-18) scale(1,1)"><g><path fill="none" stroke="none"/><text fill="#000000" stroke="none" font-family="Arial" font-size="11px" font-style="normal" font-weight="normal" text-decoration="none" x="177" y="66.5">+ToggleRecording()</text></g></g><g transform="translate(2,-18) scale(1,1)"><g><path fill="none" stroke="none"/><text fill="#000000" stroke="none" font-family="Arial" font-size="11px" font-style="normal" font-weight="normal" text-decoration="none" x="177" y="79.5">+ToggleCapturing()</text></g></g><g transform="translate(2,-18) scale(1,1)"><g><path fill="none" stroke="none"/><text fill="#000000" stroke="none" font-family="Arial" font-size="11px" font-style="normal" font-weight="normal" text-decoration="none" x="177" y="92.5">+ToggleReplayBuffer()</text></g></g><g transform="translate(2,-18) scale(1,1)"><rect fill="#C0C0C0" stroke="none" x="211" y="307" width="128" height="68" opacity="0.2"/></g><g transform="translate(2,-18) scale(1,1)"><rect fill="#FFFFB9" stroke="none" x="204" y="300" width="128" height="68"/></g><g transform="translate(2,-18) scale(1,1)"><path fill="none" stroke="#800000" d="M 204 300 L 332 300 L 332 368 L 204 368 L 204 300 Z Z" stroke-miterlimit="10"/></g><g transform="translate(2,-18) scale(1,1)"><path fill="none" stroke="#800000" d="M 204 323 L 332 323" stroke-miterlimit="10"/></g><g transform="translate(2,-18) scale(1,1)"><path fill="none" stroke="#800000" d="M 204 333 L 332 333" stroke-miterlimit="10"/></g><g transform="translate(2,-18) scale(1,1)"><g><path fill="none" stroke="none"/><text fill="#000000" stroke="none" font-family="Arial" font-size="11px" font-style="normal" font-weight="bold" text-decoration="none" x="230.700439453125" y="317.5">OBS_Capture2</text></g></g><g transform="translate(2,-18) scale(1,1)"><g><path fill="none" stroke="none"/><text fill="#000000" stroke="none" font-family="Arial" font-size="11px" font-style="normal" font-weight="normal" text-decoration="none" x="209" y="348.5">+StartRecording()</text></g></g><g transform="translate(2,-18) scale(1,1)"><g><path fill="none" stroke="none"/><text fill="#000000" stroke="none" font-family="Arial" font-size="11px" font-style="normal" font-weight="normal" text-decoration="none" x="209" y="361.5">+StopRecording()</text></g></g><g transform="translate(2,-18) scale(1,1)"><rect fill="#C0C0C0" stroke="none" x="71" y="179" width="124" height="68" opacity="0.2"/></g><g transform="translate(2,-18) scale(1,1)"><rect fill="#FFFFB9" stroke="none" x="64" y="172" width="124" height="68"/></g><g transform="translate(2,-18) scale(1,1)"><path fill="none" stroke="#800000" d="M 64 172 L 188 172 L 188 240 L 64 240 L 64 172 Z Z" stroke-miterlimit="10"/></g><g transform="translate(2,-18) scale(1,1)"><path fill="none" stroke="#800000" d="M 64 195 L 188 195" stroke-miterlimit="10"/></g><g transform="translate(2,-18) scale(1,1)"><path fill="none" stroke="#800000" d="M 64 205 L 188 205" stroke-miterlimit="10"/></g><g transform="translate(2,-18) scale(1,1)"><g><path fill="none" stroke="none"/><text fill="#000000" stroke="none" font-family="Arial" font-size="11px" font-style="normal" font-weight="bold" text-decoration="none" x="89.927734375" y="189.5">OBS-Capture3</text></g></g><g transform="translate(2,-18) scale(1,1)"><g><path fill="none" stroke="none"/><text fill="#000000" stroke="none" font-family="Arial" font-size="11px" font-style="normal" font-weight="normal" text-decoration="none" x="69" y="220.5">+StartReplayBuffer()</text></g></g><g transform="translate(2,-18) scale(1,1)"><g><path fill="none" stroke="none"/><text fill="#000000" stroke="none" font-family="Arial" font-size="11px" font-style="normal" font-weight="normal" text-decoration="none" x="69" y="233.5">+StopReplayBuffer()</text></g></g><g transform="translate(2,-18) scale(1,1)"><rect fill="#C0C0C0" stroke="none" x="287" y="175" width="100" height="76" opacity="0.2"/></g><g transform="translate(2,-18) scale(1,1)"><rect fill="#FFFFB9" stroke="none" x="280" y="168" width="100" height="76"/></g><g transform="translate(2,-18) scale(1,1)"><path fill="none" stroke="#800000" d="M 280 168 L 380 168 L 380 244 L 280 244 L 280 168 Z Z" stroke-miterlimit="10"/></g><g transform="translate(2,-18) scale(1,1)"><path fill="none" stroke="#800000" d="M 280 191 L 380 191" stroke-miterlimit="10"/></g><g transform="translate(2,-18) scale(1,1)"><path fill="none" stroke="#800000" d="M 280 201 L 380 201" stroke-miterlimit="10"/></g><g transform="translate(2,-18) scale(1,1)"><g><path fill="none" stroke="none"/><text fill="#000000" stroke="none" font-family="Arial" font-size="11px" font-style="normal" font-weight="bold" text-decoration="none" x="293.927734375" y="185.5">OBS-Capture4</text></g></g><g transform="translate(2,-18) scale(1,1)"><g><path fill="none" stroke="none"/><text fill="#000000" stroke="none" font-family="Arial" font-size="11px" font-style="normal" font-weight="normal" text-decoration="none" x="285" y="216.5">+Start()</text></g></g><g transform="translate(2,-18) scale(1,1)"><g><path fill="none" stroke="none"/><text fill="#000000" stroke="none" font-family="Arial" font-size="11px" font-style="normal" font-weight="normal" text-decoration="none" x="285" y="229.5">+Stop()</text></g></g><g transform="translate(2,-18) scale(1,1)"><path fill="none" stroke="#800000" d="M 205 110 L 155 171" stroke-miterlimit="10"/></g><g transform="translate(2,-18) scale(1,1)"><path fill="none" stroke="#800000" d="M 158.18679589046656 160.47173651771075 L 155 171 L 164.69801148685175 165.8087984819609" stroke-miterlimit="10"/></g><g transform="translate(2,-18) scale(1,1)"><path fill="none" stroke="#800000" d="M 267 110 L 305 167" stroke-miterlimit="10"/></g><g transform="translate(2,-18) scale(1,1)"><path fill="none" stroke="#800000" d="M 295.8602317743892 160.87916371872967 L 305 167 L 302.86529275021616 156.20912306817837" stroke-miterlimit="10"/></g><g transform="translate(2,-18) scale(1,1)"><path fill="none" stroke="#800000" d="M 189 206 L 279 206" stroke-miterlimit="10"/></g><g transform="translate(2,-18) scale(1,1)"><path fill="none" stroke="#800000" d="M 268.83732514237585 210.209517756016 L 279 206 L 268.83732514237585 201.790482243984" stroke-miterlimit="10"/></g><g transform="translate(2,-18) scale(1,1)"><path fill="none" stroke="#800000" d="M 311 245 L 285 299" stroke-miterlimit="10"/></g><g transform="translate(2,-18) scale(1,1)"><path fill="none" stroke="#800000" d="M 285.615944554697 288.0172584340002 L 285 299 L 293.201509608799 291.6695675341234" stroke-miterlimit="10"/></g><g transform="translate(2,-18) scale(1,1)"><rect fill="#C0C0C0" stroke="none" x="383" y="299" width="132" height="76" opacity="0.2"/></g><g transform="translate(2,-18) scale(1,1)"><rect fill="#FFFFB9" stroke="none" x="376" y="292" width="132" height="76"/></g><g transform="translate(2,-18) scale(1,1)"><path fill="none" stroke="#800000" d="M 376 292 L 508 292 L 508 368 L 376 368 L 376 292 Z Z" stroke-miterlimit="10"/></g><g transform="translate(2,-18) scale(1,1)"><path fill="none" stroke="#800000" d="M 376 315 L 508 315" stroke-miterlimit="10"/></g><g transform="translate(2,-18) scale(1,1)"><path fill="none" stroke="#800000" d="M 376 325 L 508 325" stroke-miterlimit="10"/></g><g transform="translate(2,-18) scale(1,1)"><g><path fill="none" stroke="none"/><text fill="#000000" stroke="none" font-family="Arial" font-size="11px" font-style="normal" font-weight="bold" text-decoration="none" x="404.700439453125" y="309.5">OBS_Capture6</text></g></g><g transform="translate(2,-18) scale(1,1)"><g><path fill="none" stroke="none"/><text fill="#000000" stroke="none" font-family="Arial" font-size="11px" font-style="normal" font-weight="normal" text-decoration="none" x="381" y="340.5">+MainAudioThread()</text></g></g><g transform="translate(2,-18) scale(1,1)"><g><path fill="none" stroke="none"/><text fill="#000000" stroke="none" font-family="Arial" font-size="11px" font-style="normal" font-weight="normal" text-decoration="none" x="381" y="353.5">+MainAudioLoop()</text></g></g><g transform="translate(2,-18) scale(1,1)"><path fill="none" stroke="#800000" d="M 365 245 L 407 291" stroke-miterlimit="10"/></g><g transform="translate(2,-18) scale(1,1)"><path fill="none" stroke="#800000" d="M 397.0389518877435 286.33336089832187 L 407 291 L 403.25628748624484 280.6566631779511" stroke-miterlimit="10"/></g><g transform="translate(2,-18) scale(1,1)"><rect fill="#C0C0C0" stroke="none" x="763" y="75" width="140" height="94" opacity="0.2"/></g><g transform="translate(2,-18) scale(1,1)"><rect fill="#FFFFB9" stroke="none" x="756" y="68" width="140" height="94"/></g><g transform="translate(2,-18) scale(1,1)"><path fill="none" stroke="#800000" d="M 756 68 L 896 68 L 896 162 L 756 162 L 756 68 Z Z" stroke-miterlimit="10"/></g><g transform="translate(2,-18) scale(1,1)"><path fill="none" stroke="#800000" d="M 756 91 L 896 91" stroke-miterlimit="10"/></g><g transform="translate(2,-18) scale(1,1)"><path fill="none" stroke="#800000" d="M 756 101 L 896 101" stroke-miterlimit="10"/></g><g transform="translate(2,-18) scale(1,1)"><g><path fill="none" stroke="none"/><text fill="#000000" stroke="none" font-family="Arial" font-size="11px" font-style="normal" font-weight="bold" text-decoration="none" x="774.633544921875" y="85.5">OBS_VideoCapture1</text></g></g><g transform="translate(2,-18) scale(1,1)"><g><path fill="none" stroke="none"/><text fill="#000000" stroke="none" font-family="Arial" font-size="11px" font-style="normal" font-weight="normal" text-decoration="none" x="761" y="116.5">+MainCaptureLoop()</text></g></g><g transform="translate(2,-18) scale(1,1)"><g><path fill="none" stroke="none"/><text fill="#000000" stroke="none" font-family="Arial" font-size="11px" font-style="normal" font-weight="normal" text-decoration="none" x="761" y="129.5">+MainCaptureThread()</text></g></g><g transform="translate(2,-18) scale(1,1)"><path fill="none" stroke="#800000" d="M 381 197 L 755 128" stroke-miterlimit="10"/></g><g transform="translate(2,-18) scale(1,1)"><path fill="none" stroke="#800000" d="M 745.7697198376923 133.9834712437938 L 755 128 L 744.2422532134592 125.7041593965018" stroke-miterlimit="10"/></g><g transform="translate(2,-18) scale(1,1)"><rect fill="#C0C0C0" stroke="none" x="735" y="239" width="163" height="76" opacity="0.2"/></g><g transform="translate(2,-18) scale(1,1)"><rect fill="#FFFFB9" stroke="none" x="728" y="232" width="163" height="76"/></g><g transform="translate(2,-18) scale(1,1)"><path fill="none" stroke="#800000" d="M 728 232 L 891 232 L 891 308 L 728 308 L 728 232 Z Z" stroke-miterlimit="10"/></g><g transform="translate(2,-18) scale(1,1)"><path fill="none" stroke="#800000" d="M 728 255 L 891 255" stroke-miterlimit="10"/></g><g transform="translate(2,-18) scale(1,1)"><path fill="none" stroke="#800000" d="M 728 265 L 891 265" stroke-miterlimit="10"/></g><g transform="translate(2,-18) scale(1,1)"><g><path fill="none" stroke="none"/><text fill="#000000" stroke="none" font-family="Arial" font-size="11px" font-style="normal" font-weight="bold" text-decoration="none" x="758.133544921875" y="249.5">OBS_VideoCapture2</text></g></g><g transform="translate(2,-18) scale(1,1)"><g><path fill="none" stroke="none"/><text fill="#000000" stroke="none" font-family="Arial" font-size="11px" font-style="normal" font-weight="normal" text-decoration="none" x="733" y="280.5">+EncodeThread()</text></g></g><g transform="translate(2,-18) scale(1,1)"><g><path fill="none" stroke="none"/><text fill="#000000" stroke="none" font-family="Arial" font-size="11px" font-style="normal" font-weight="normal" text-decoration="none" x="733" y="293.5">+EncodeLoop()</text></g></g><g transform="translate(2,-18) scale(1,1)"><path fill="none" stroke="#800000" d="M 381 213 L 727 259" stroke-miterlimit="10"/></g><g transform="translate(2,-18) scale(1,1)"><path fill="none" stroke="#800000" d="M 716.3711997283303 261.8334792720181 L 727 259 L 717.4807308444294 253.48787565962053" stroke-miterlimit="10"/></g><g transform="translate(2,-18) scale(1,1)"><rect fill="#C0C0C0" stroke="none" x="719" y="371" width="136" height="56" opacity="0.2"/></g><g transform="translate(2,-18) scale(1,1)"><rect fill="#FFFFB9" stroke="none" x="712" y="364" width="136" height="56"/></g><g transform="translate(2,-18) scale(1,1)"><path fill="none" stroke="#800000" d="M 712 364 L 848 364 L 848 420 L 712 420 L 712 364 Z Z" stroke-miterlimit="10"/></g><g transform="translate(2,-18) scale(1,1)"><path fill="none" stroke="#800000" d="M 712 387 L 848 387" stroke-miterlimit="10"/></g><g transform="translate(2,-18) scale(1,1)"><path fill="none" stroke="#800000" d="M 712 397 L 848 397" stroke-miterlimit="10"/></g><g transform="translate(2,-18) scale(1,1)"><g><path fill="none" stroke="none"/><text fill="#000000" stroke="none" font-family="Arial" font-size="11px" font-style="normal" font-weight="bold" text-decoration="none" x="728.633544921875" y="381.5">OBS_VideoCapture3</text></g></g><g transform="translate(2,-18) scale(1,1)"><g><path fill="none" stroke="none"/><text fill="#000000" stroke="none" font-family="Arial" font-size="11px" font-style="normal" font-weight="normal" text-decoration="none" x="717" y="412.5">+ProcessFrame()</text></g></g><g transform="translate(2,-18) scale(1,1)"><path fill="none" stroke="#800000" d="M 800 309 L 787 363" stroke-miterlimit="10"/></g><g transform="translate(2,-18) scale(1,1)"><path fill="none" stroke="#800000" d="M 785.2860203971827 352.1343534973235 L 787 363 L 793.471205724051 354.104861076014" stroke-miterlimit="10"/></g><g transform="translate(2,-18) scale(1,1)"><rect fill="#C0C0C0" stroke="none" x="1015" y="47" width="143" height="56" opacity="0.2"/></g><g transform="translate(2,-18) scale(1,1)"><rect fill="#FFFFB9" stroke="none" x="1008" y="40" width="143" height="56"/></g><g transform="translate(2,-18) scale(1,1)"><path fill="none" stroke="#800000" d="M 1008 40 L 1151 40 L 1151 96 L 1008 96 L 1008 40 Z Z" stroke-miterlimit="10"/></g><g transform="translate(2,-18) scale(1,1)"><path fill="none" stroke="#800000" d="M 1008 63 L 1151 63" stroke-miterlimit="10"/></g><g transform="translate(2,-18) scale(1,1)"><path fill="none" stroke="#800000" d="M 1008 73 L 1151 73" stroke-miterlimit="10"/></g><g transform="translate(2,-18) scale(1,1)"><g><path fill="none" stroke="none"/><text fill="#000000" stroke="none" font-family="Arial" font-size="11px" font-style="normal" font-weight="bold" text-decoration="none" x="1028.133544921875" y="57.5">OBS_VideoCapture4</text></g></g><g transform="translate(2,-18) scale(1,1)"><g><path fill="none" stroke="none"/><text fill="#000000" stroke="none" font-family="Arial" font-size="11px" font-style="normal" font-weight="normal" text-decoration="none" x="1013" y="88.5">+Convert444Thread()</text></g></g><g transform="translate(2,-18) scale(1,1)"><path fill="none" stroke="#800000" d="M 897 102 L 1007 81" stroke-miterlimit="10"/></g><g transform="translate(2,-18) scale(1,1)"><path fill="none" stroke="#800000" d="M 997.8069867005503 87.04057170110092 L 1007 81 L 996.228228744329 78.77088716851303" stroke-miterlimit="10"/></g><g transform="translate(2,-18) scale(1,1)"><rect fill="#C0C0C0" stroke="none" x="467" y="455" width="132" height="55" opacity="0.2"/></g><g transform="translate(2,-18) scale(1,1)"><rect fill="#FFFFB9" stroke="none" x="460" y="448" width="132" height="55"/></g><g transform="translate(2,-18) scale(1,1)"><path fill="none" stroke="#800000" d="M 460 448 L 592 448 L 592 503 L 460 503 L 460 448 Z Z" stroke-miterlimit="10"/></g><g transform="translate(2,-18) scale(1,1)"><path fill="none" stroke="#800000" d="M 460 471 L 592 471" stroke-miterlimit="10"/></g><g transform="translate(2,-18) scale(1,1)"><path fill="none" stroke="#800000" d="M 460 492 L 592 492" stroke-miterlimit="10"/></g><g transform="translate(2,-18) scale(1,1)"><g><path fill="none" stroke="none"/><text fill="#000000" stroke="none" font-family="Arial" font-size="11px" font-style="normal" font-weight="bold" text-decoration="none" x="488.700439453125" y="465.5">OBS_Capture7</text></g></g><g transform="translate(2,-18) scale(1,1)"><g><path fill="none" stroke="none"/><text fill="#000000" stroke="none" font-family="Arial" font-size="11px" font-style="normal" font-weight="normal" text-decoration="none" x="465" y="486.5">+EncodeAudioSegment</text></g></g><g transform="translate(2,-18) scale(1,1)"><path fill="none" stroke="#800000" d="M 465 369 L 510 447" stroke-miterlimit="10"/></g><g transform="translate(2,-18) scale(1,1)"><path fill="none" stroke="#800000" d="M 501.2752595816545 440.3008280636717 L 510 447 L 508.56770679060793 436.0936469815832" stroke-miterlimit="10"/></g><g transform="translate(2,-18) scale(1,1)"><rect fill="#C0C0C0" stroke="none" x="719" y="475" width="136" height="55" opacity="0.2"/></g><g transform="translate(2,-18) scale(1,1)"><rect fill="#FFFFB9" stroke="none" x="712" y="468" width="136" height="55"/></g><g transform="translate(2,-18) scale(1,1)"><path fill="none" stroke="#800000" d="M 712 468 L 848 468 L 848 523 L 712 523 L 712 468 Z Z" stroke-miterlimit="10"/></g><g transform="translate(2,-18) scale(1,1)"><path fill="none" stroke="#800000" d="M 712 491 L 848 491" stroke-miterlimit="10"/></g><g transform="translate(2,-18) scale(1,1)"><path fill="none" stroke="#800000" d="M 712 501 L 848 501" stroke-miterlimit="10"/></g><g transform="translate(2,-18) scale(1,1)"><g><path fill="none" stroke="none"/><text fill="#000000" stroke="none" font-family="Arial" font-size="11px" font-style="normal" font-weight="bold" text-decoration="none" x="728.633544921875" y="485.5">OBS_VideoCapture5</text></g></g><g transform="translate(2,-18) scale(1,1)"><g><path fill="none" stroke="none"/><text fill="#000000" stroke="none" font-family="Arial" font-size="11px" font-style="normal" font-weight="normal" text-decoration="none" x="717" y="516.5">+BufferVideoData()</text></g></g><g transform="translate(2,-18) scale(1,1)"><rect fill="#C0C0C0" stroke="none" x="899" y="371" width="140" height="56" opacity="0.2"/></g><g transform="translate(2,-18) scale(1,1)"><rect fill="#FFFFB9" stroke="none" x="892" y="364" width="140" height="56"/></g><g transform="translate(2,-18) scale(1,1)"><path fill="none" stroke="#800000" d="M 892 364 L 1032 364 L 1032 420 L 892 420 L 892 364 Z Z" stroke-miterlimit="10"/></g><g transform="translate(2,-18) scale(1,1)"><path fill="none" stroke="#800000" d="M 892 387 L 1032 387" stroke-miterlimit="10"/></g><g transform="translate(2,-18) scale(1,1)"><path fill="none" stroke="#800000" d="M 892 397 L 1032 397" stroke-miterlimit="10"/></g><g transform="translate(2,-18) scale(1,1)"><g><path fill="none" stroke="none"/><text fill="#000000" stroke="none" font-family="Arial" font-size="11px" font-style="normal" font-weight="bold" text-decoration="none" x="910.633544921875" y="381.5">OBS_VideoCapture6</text></g></g><g transform="translate(2,-18) scale(1,1)"><g><path fill="none" stroke="none"/><text fill="#000000" stroke="none" font-family="Arial" font-size="11px" font-style="normal" font-weight="normal" text-decoration="none" x="897" y="412.5">+FlushBufferedVideo()</text></g></g><g transform="translate(2,-18) scale(1,1)"><path fill="none" stroke="#800000" d="M 858 309 L 926 363" stroke-miterlimit="10"/></g><g transform="translate(2,-18) scale(1,1)"><path fill="none" stroke="#800000" d="M 915.4236751537562 359.97653299228756 L 926 363 L 920.6593230050365 353.38349495734195" stroke-miterlimit="10"/></g><g transform="translate(2,-18) scale(1,1)"><path fill="none" stroke="#800000" d="M 780 421 L 780 467" stroke-miterlimit="10"/></g><g transform="translate(2,-18) scale(1,1)"><path fill="none" stroke="#800000" d="M 775.790482243984 456.83732514237585 L 780 467 L 784.209517756016 456.83732514237585" stroke-miterlimit="10"/></g><g transform="translate(2,-18) scale(1,1)"><rect fill="#C0C0C0" stroke="none" x="1015" y="131" width="140" height="55" opacity="0.2"/></g><g transform="translate(2,-18) scale(1,1)"><rect fill="#FFFFB9" stroke="none" x="1008" y="124" width="140" height="55"/></g><g transform="translate(2,-18) scale(1,1)"><path fill="none" stroke="#800000" d="M 1008 124 L 1148 124 L 1148 179 L 1008 179 L 1008 124 Z Z" stroke-miterlimit="10"/></g><g transform="translate(2,-18) scale(1,1)"><path fill="none" stroke="#800000" d="M 1008 147 L 1148 147" stroke-miterlimit="10"/></g><g transform="translate(2,-18) scale(1,1)"><path fill="none" stroke="#800000" d="M 1008 157 L 1148 157" stroke-miterlimit="10"/></g><g transform="translate(2,-18) scale(1,1)"><g><path fill="none" stroke="none"/><text fill="#000000" stroke="none" font-family="Arial" font-size="11px" font-style="normal" font-weight="bold" text-decoration="none" x="1026.633544921875" y="141.5">OBS_VideoCapture7</text></g></g><g transform="translate(2,-18) scale(1,1)"><g><path fill="none" stroke="none"/><text fill="#000000" stroke="none" font-family="Arial" font-size="11px" font-style="normal" font-weight="normal" text-decoration="none" x="1013" y="172.5">+DrawPreview()</text></g></g><g transform="translate(2,-18) scale(1,1)"><path fill="none" stroke="#800000" d="M 897 125 L 1007 141" stroke-miterlimit="10"/></g><g transform="translate(2,-18) scale(1,1)"><path fill="none" stroke="#800000" d="M 996.3372374377058 143.7028678362317 L 1007 141 L 997.5490721103693 135.37150446167013" stroke-miterlimit="10"/></g><g transform="translate(2,-18) scale(1,1)"><rect fill="#C0C0C0" stroke="none" x="219" y="455" width="151" height="60" opacity="0.2"/></g><g transform="translate(2,-18) scale(1,1)"><rect fill="#FFFFB9" stroke="none" x="212" y="448" width="151" height="60"/></g><g transform="translate(2,-18) scale(1,1)"><path fill="none" stroke="#800000" d="M 212 448 L 363 448 L 363 508 L 212 508 L 212 448 Z Z" stroke-miterlimit="10"/></g><g transform="translate(2,-18) scale(1,1)"><path fill="none" stroke="#800000" d="M 212 471 L 363 471" stroke-miterlimit="10"/></g><g transform="translate(2,-18) scale(1,1)"><path fill="none" stroke="#800000" d="M 212 481 L 363 481" stroke-miterlimit="10"/></g><g transform="translate(2,-18) scale(1,1)"><g><path fill="none" stroke="none"/><text fill="#000000" stroke="none" font-family="Arial" font-size="11px" font-style="normal" font-weight="bold" text-decoration="none" x="250.200439453125" y="465.5">OBS_Capture8</text></g></g><g transform="translate(2,-18) scale(1,1)"><g><path fill="none" stroke="none"/><text fill="#000000" stroke="none" font-family="Arial" font-size="11px" font-style="normal" font-weight="normal" text-decoration="none" x="217" y="496.5">+QueryNewAudio()</text></g></g><g transform="translate(2,-18) scale(1,1)"><path fill="none" stroke="#800000" d="M 401 369 L 319 447" stroke-miterlimit="10"/></g><g transform="translate(2,-18) scale(1,1)"><path fill="none" stroke="#800000" d="M 323.4621904107656 436.94570456282133 L 319 447 L 329.2647055820799 443.0457846147159" stroke-miterlimit="10"/></g><g transform="translate(2,-18) scale(1,1)"><rect fill="#C0C0C0" stroke="none" x="211" y="579" width="147" height="55" opacity="0.2"/></g><g transform="translate(2,-18) scale(1,1)"><rect fill="#FFFFB9" stroke="none" x="204" y="572" width="147" height="55"/></g><g transform="translate(2,-18) scale(1,1)"><path fill="none" stroke="#800000" d="M 204 572 L 351 572 L 351 627 L 204 627 L 204 572 Z Z" stroke-miterlimit="10"/></g><g transform="translate(2,-18) scale(1,1)"><path fill="none" stroke="#800000" d="M 204 595 L 351 595" stroke-miterlimit="10"/></g><g transform="translate(2,-18) scale(1,1)"><path fill="none" stroke="#800000" d="M 204 605 L 351 605" stroke-miterlimit="10"/></g><g transform="translate(2,-18) scale(1,1)"><g><path fill="none" stroke="none"/><text fill="#000000" stroke="none" font-family="Arial" font-size="11px" font-style="normal" font-weight="bold" text-decoration="none" x="240.200439453125" y="589.5">OBS_Capture9</text></g></g><g transform="translate(2,-18) scale(1,1)"><g><path fill="none" stroke="none"/><text fill="#000000" stroke="none" font-family="Arial" font-size="11px" font-style="normal" font-weight="normal" text-decoration="none" x="209" y="620.5">+QueryAudioBuffers()</text></g></g><g transform="translate(2,-18) scale(1,1)"><path fill="none" stroke="#800000" d="M 284 509 L 279 571" stroke-miterlimit="10"/></g><g transform="translate(2,-18) scale(1,1)"><path fill="none" stroke="#800000" d="M 275.62102281867453 560.5318333406426 L 279 571 L 284.0128139530327 561.2085906901876" stroke-miterlimit="10"/></g><g transform="translate(2,-18) scale(1,1)"><rect fill="#C0C0C0" stroke="none" x="15" y="299" width="132" height="60" opacity="0.2"/></g><g transform="translate(2,-18) scale(1,1)"><rect fill="#FFFFB9" stroke="none" x="8" y="292" width="132" height="60"/></g><g transform="translate(2,-18) scale(1,1)"><path fill="none" stroke="#800000" d="M 8 292 L 140 292 L 140 352 L 8 352 L 8 292 Z Z" stroke-miterlimit="10"/></g><g transform="translate(2,-18) scale(1,1)"><path fill="none" stroke="#800000" d="M 8 315 L 140 315" stroke-miterlimit="10"/></g><g transform="translate(2,-18) scale(1,1)"><path fill="none" stroke="#800000" d="M 8 325 L 140 325" stroke-miterlimit="10"/></g><g transform="translate(2,-18) scale(1,1)"><g><path fill="none" stroke="none"/><text fill="#000000" stroke="none" font-family="Arial" font-size="11px" font-style="normal" font-weight="bold" text-decoration="none" x="33.6416015625" y="309.5">OBS_Capture10</text></g></g><g transform="translate(2,-18) scale(1,1)"><g><path fill="none" stroke="none"/><text fill="#000000" stroke="none" font-family="Arial" font-size="11px" font-style="normal" font-weight="normal" text-decoration="none" x="13" y="340.5">+AddPendingStream()</text></g></g><g transform="translate(2,-18) scale(1,1)"><path fill="none" stroke="#800000" d="M 279 229 L 141 292" stroke-miterlimit="10"/></g><g transform="translate(2,-18) scale(1,1)"><path fill="none" stroke="#800000" d="M 148.49668288560594 283.95017107556544 L 141 292 L 151.99304392467639 291.60886668495783" stroke-miterlimit="10"/></g><g transform="translate(2,-18) scale(1,1)"><path fill="none" stroke="#800000" d="M 203 330 L 141 326" stroke-miterlimit="10"/></g><g transform="translate(2,-18) scale(1,1)"><path fill="none" stroke="#800000" d="M 151.41260878964576 322.45351185060605 L 141 326 L 150.8705721048354 330.85508046516696" stroke-miterlimit="10"/></g><g transform="translate(2,-18) scale(1,1)"><rect fill="#C0C0C0" stroke="none" x="931" y="515" width="151" height="63" opacity="0.2"/></g><g transform="translate(2,-18) scale(1,1)"><rect fill="#FFFFB9" stroke="none" x="924" y="508" width="151" height="63"/></g><g transform="translate(2,-18) scale(1,1)"><path fill="none" stroke="#800000" d="M 924 508 L 1075 508 L 1075 571 L 924 571 L 924 508 Z Z" stroke-miterlimit="10"/></g><g transform="translate(2,-18) scale(1,1)"><path fill="none" stroke="#800000" d="M 924 531 L 1075 531" stroke-miterlimit="10"/></g><g transform="translate(2,-18) scale(1,1)"><path fill="none" stroke="#800000" d="M 924 541 L 1075 541" stroke-miterlimit="10"/></g><g transform="translate(2,-18) scale(1,1)"><g><path fill="none" stroke="none"/><text fill="#000000" stroke="none" font-family="Arial" font-size="11px" font-style="normal" font-weight="bold" text-decoration="none" x="948.133544921875" y="525.5">OBS_VideoCapture8</text></g></g><g transform="translate(2,-18) scale(1,1)"><g><path fill="none" stroke="none"/><text fill="#000000" stroke="none" font-family="Arial" font-size="11px" font-style="normal" font-weight="normal" text-decoration="none" x="929" y="556.5">+SendFrame()</text></g></g><g transform="translate(2,-18) scale(1,1)"><path fill="none" stroke="#800000" d="M 969 421 L 991 507" stroke-miterlimit="10"/></g><g transform="translate(2,-18) scale(1,1)"><path fill="none" stroke="#800000" d="M 984.4031590749436 498.1976315795406 L 991 507 L 992.5595434480929 496.1111146468745" stroke-miterlimit="10"/></g><g transform="translate(2,-18) scale(1,1)"><path fill="none" stroke="#800000" d="M 823 421 L 951 507" stroke-miterlimit="10"/></g><g transform="translate(2,-18) scale(1,1)"><path fill="none" stroke="#800000" d="M 940.2168716340158 504.82649070793167 L 951 507 L 944.912079969401 497.8382736506141" stroke-miterlimit="10"/></g></g></svg>